<?xml version="1.0" encoding="utf-8"?>
<!-- Generator: Adobe Illustrator 19.0.0, SVG Export Plug-In . SVG Version: 6.00 Build 0)  -->
<svg version="1.1" id="Layer_1" xmlns="http://www.w3.org/2000/svg" xmlns:xlink="http://www.w3.org/1999/xlink" x="0px" y="0px"
	 viewBox="0 0 951 209.4" style="enable-background:new 0 0 951 209.4;" xml:space="preserve">
<g id="XMLID_193_">
	<path id="XMLID_194_" d="M44.5,15.3v174.4l-19.9-19.4h145.5v38.8H0.5V15.3H44.5z"/>
	<path id="XMLID_196_" d="M212.4,45.3c-7.8,0-14.1-2-19-6.1c-4.9-4-7.4-9.4-7.4-16.2c0-6.9,2.5-12.4,7.4-16.4c4.9-4,11.2-6.1,19-6.1
		c7.9,0,14.3,2,19.1,6.1c4.8,4,7.2,9.5,7.2,16.4c0,6.7-2.4,12.1-7.2,16.2C226.7,43.2,220.4,45.3,212.4,45.3z M191,60.5l21.4,4.1
		l21.7-4.1v148.6H191V60.5z"/>
	<path id="XMLID_199_" d="M259.7,62.1h43.2l9.3,56.1v91H269v-97.4L259.7,62.1z M368.2,58.2c14,0,25.8,2.8,35.7,8.4
		c9.8,5.6,17.3,13.6,22.5,23.9c5.2,10.3,7.8,22.7,7.8,37v81.7H391v-75.2c0-13.3-3.2-23.3-9.6-30.1c-6.4-6.8-15.7-10.2-27.9-10.2
		c-8.3,0-15.5,1.9-21.8,5.6c-6.3,3.7-11.1,8.8-14.5,15.4c-3.4,6.5-5,14.4-5,23.5l-14.2-7.5c1.7-15.5,5.9-28.6,12.4-39.3
		c6.5-10.7,14.8-18.9,24.8-24.5C345.2,61,356.2,58.2,368.2,58.2z"/>
	<path id="XMLID_202_" d="M507.8,173.4l-12.1-4.4l87.3-107h47l-126.1,147h-39.3v-199h43.2V173.4z M541.1,137l31.8-24.5l61.2,96.6
		h-49.4L541.1,137z"/>
	<path id="XMLID_205_" d="M660.5,39.8c-3.6,0-6.7-1.2-9.2-3.7c-2.5-2.5-3.7-5.5-3.7-8.9c0-3.4,1.2-6.4,3.7-8.9
		c2.5-2.5,5.6-3.7,9.2-3.7c3.6,0,6.7,1.3,9.2,3.7c2.5,2.5,3.7,5.5,3.7,8.9c0,3.4-1.3,6.4-3.7,8.9C667.2,38.6,664.1,39.8,660.5,39.8z
		 M653.5,64.4l7,1l7-1v144.7h-14V64.4z"/>
	<path id="XMLID_208_" d="M702.4,64.4h14l7.8,46.3v98.5h-14V108.6L702.4,64.4z M786.3,61.3c13.4,0,24.8,2.7,34.1,8
		c9.3,5.3,16.4,13.1,21.3,23.4c4.9,10.3,7.4,22.7,7.4,37.3v79.1h-14v-76.2c0-19.5-4.4-34.2-13.2-44.1c-8.8-9.9-21.7-14.9-38.8-14.9
		c-11.9,0-22.3,2.7-31.1,8c-8.9,5.3-15.8,12.8-20.7,22.4c-4.9,9.6-7.4,20.6-7.4,33.2l-7.2-7c0.9-14,4.3-26.1,10.3-36.4
		c6-10.3,14.1-18.4,24.3-24.2C761.6,64.2,773.3,61.3,786.3,61.3z"/>
	<path id="XMLID_211_" d="M949.1,15.3v193.8h-14.5v-192l11.9,9.8l-78.6,14V28.5l69.8-13.2H949.1z"/>
</g>
<g id="XMLID_173_">
	<path id="XMLID_174_" d="M44.5,15.3v174.4l-19.9-19.4h145.5v38.8H0.5V15.3H44.5z"/>
	<path id="XMLID_176_" d="M212.4,45.3c-7.8,0-14.1-2-19-6.1c-4.9-4-7.4-9.4-7.4-16.2c0-6.9,2.5-12.4,7.4-16.4c4.9-4,11.2-6.1,19-6.1
		c7.9,0,14.3,2,19.1,6.1c4.8,4,7.2,9.5,7.2,16.4c0,6.7-2.4,12.1-7.2,16.2C226.7,43.2,220.4,45.3,212.4,45.3z M191,60.5l21.4,4.1
		l21.7-4.1v148.6H191V60.5z"/>
	<path id="XMLID_179_" d="M259.7,62.1h43.2l9.3,56.1v91H269v-97.4L259.7,62.1z M368.2,58.2c14,0,25.8,2.8,35.7,8.4
		c9.8,5.6,17.3,13.6,22.5,23.9c5.2,10.3,7.8,22.7,7.8,37v81.7H391v-75.2c0-13.3-3.2-23.3-9.6-30.1c-6.4-6.8-15.7-10.2-27.9-10.2
		c-8.3,0-15.5,1.9-21.8,5.6c-6.3,3.7-11.1,8.8-14.5,15.4c-3.4,6.5-5,14.4-5,23.5l-14.2-7.5c1.7-15.5,5.9-28.6,12.4-39.3
		c6.5-10.7,14.8-18.9,24.8-24.5C345.2,61,356.2,58.2,368.2,58.2z"/>
	<path id="XMLID_182_" d="M507.8,173.4l-12.1-4.4l87.3-107h47l-126.1,147h-39.3v-199h43.2V173.4z M541.1,137l31.8-24.5l61.2,96.6
		h-49.4L541.1,137z"/>
	<path id="XMLID_185_" d="M660.5,39.8c-3.6,0-6.7-1.2-9.2-3.7c-2.5-2.5-3.7-5.5-3.7-8.9c0-3.4,1.2-6.4,3.7-8.9
		c2.5-2.5,5.6-3.7,9.2-3.7c3.6,0,6.7,1.3,9.2,3.7c2.5,2.5,3.7,5.5,3.7,8.9c0,3.4-1.3,6.4-3.7,8.9C667.2,38.6,664.1,39.8,660.5,39.8z
		 M653.5,64.4l7,1l7-1v144.7h-14V64.4z"/>
	<path id="XMLID_188_" d="M702.4,64.4h14l7.8,46.3v98.5h-14V108.6L702.4,64.4z M786.3,61.3c13.4,0,24.8,2.7,34.1,8
		c9.3,5.3,16.4,13.1,21.3,23.4c4.9,10.3,7.4,22.7,7.4,37.3v79.1h-14v-76.2c0-19.5-4.4-34.2-13.2-44.1c-8.8-9.9-21.7-14.9-38.8-14.9
		c-11.9,0-22.3,2.7-31.1,8c-8.9,5.3-15.8,12.8-20.7,22.4c-4.9,9.6-7.4,20.6-7.4,33.2l-7.2-7c0.9-14,4.3-26.1,10.3-36.4
		c6-10.3,14.1-18.4,24.3-24.2C761.6,64.2,773.3,61.3,786.3,61.3z"/>
	<path id="XMLID_191_" d="M949.1,15.3v193.8h-14.5v-192l11.9,9.8l-78.6,14V28.5l69.8-13.2H949.1z"/>
</g>
<g id="XMLID_1_">
	<path id="XMLID_154_" d="M44.5,15.3v174.4l-19.9-19.4h145.5v38.8H0.5V15.3H44.5z"/>
	<path id="XMLID_156_" d="M212.4,45.3c-7.8,0-14.1-2-19-6.1c-4.9-4-7.4-9.4-7.4-16.2c0-6.9,2.5-12.4,7.4-16.4c4.9-4,11.2-6.1,19-6.1
		c7.9,0,14.3,2,19.1,6.1c4.8,4,7.2,9.5,7.2,16.4c0,6.7-2.4,12.1-7.2,16.2C226.7,43.2,220.4,45.3,212.4,45.3z M191,60.5l21.4,4.1
		l21.7-4.1v148.6H191V60.5z"/>
	<path id="XMLID_159_" d="M259.7,62.1h43.2l9.3,56.1v91H269v-97.4L259.7,62.1z M368.2,58.2c14,0,25.8,2.8,35.7,8.4
		c9.8,5.6,17.3,13.6,22.5,23.9c5.2,10.3,7.8,22.7,7.8,37v81.7H391v-75.2c0-13.3-3.2-23.3-9.6-30.1c-6.4-6.8-15.7-10.2-27.9-10.2
		c-8.3,0-15.5,1.9-21.8,5.6c-6.3,3.7-11.1,8.8-14.5,15.4c-3.4,6.5-5,14.4-5,23.5l-14.2-7.5c1.7-15.5,5.9-28.6,12.4-39.3
		c6.5-10.7,14.8-18.9,24.8-24.5C345.2,61,356.2,58.2,368.2,58.2z"/>
	<path id="XMLID_162_" d="M507.8,173.4l-12.1-4.4l87.3-107h47l-126.1,147h-39.3v-199h43.2V173.4z M541.1,137l31.8-24.5l61.2,96.6
		h-49.4L541.1,137z"/>
	<path id="XMLID_165_" d="M660.5,39.8c-3.6,0-6.7-1.2-9.2-3.7c-2.5-2.5-3.7-5.5-3.7-8.9c0-3.4,1.2-6.4,3.7-8.9
		c2.5-2.5,5.6-3.7,9.2-3.7c3.6,0,6.7,1.3,9.2,3.7c2.5,2.5,3.7,5.5,3.7,8.9c0,3.4-1.3,6.4-3.7,8.9C667.2,38.6,664.1,39.8,660.5,39.8z
		 M653.5,64.4l7,1l7-1v144.7h-14V64.4z"/>
	<path id="XMLID_168_" d="M702.4,64.4h14l7.8,46.3v98.5h-14V108.6L702.4,64.4z M786.3,61.3c13.4,0,24.8,2.7,34.1,8
		c9.3,5.3,16.4,13.1,21.3,23.4c4.9,10.3,7.4,22.7,7.4,37.3v79.1h-14v-76.2c0-19.5-4.4-34.2-13.2-44.1c-8.8-9.9-21.7-14.9-38.8-14.9
		c-11.9,0-22.3,2.7-31.1,8c-8.9,5.3-15.8,12.8-20.7,22.4c-4.9,9.6-7.4,20.6-7.4,33.2l-7.2-7c0.9-14,4.3-26.1,10.3-36.4
		c6-10.3,14.1-18.4,24.3-24.2C761.6,64.2,773.3,61.3,786.3,61.3z"/>
	<path id="XMLID_171_" d="M949.1,15.3v193.8h-14.5v-192l11.9,9.8l-78.6,14V28.5l69.8-13.2H949.1z"/>
</g>
</svg>
