<?xml version="1.0" encoding="utf-8"?>
<!-- Generator: Adobe Illustrator 19.0.0, SVG Export Plug-In . SVG Version: 6.00 Build 0)  -->
<svg version="1.1" id="Layer_1" xmlns="http://www.w3.org/2000/svg" xmlns:xlink="http://www.w3.org/1999/xlink" x="0px" y="0px"
	 viewBox="-1278 1136.6 951 209.4" style="enable-background:new -1278 1136.6 951 209.4;" xml:space="preserve">
<style type="text/css">
	.st0{fill:#4B2E1F;}
</style>
<g id="XMLID_193_">
	<path id="XMLID_194_" class="st0" d="M-1233.5,1151.9v174.4l-19.9-19.4h145.5v38.8h-169.6v-193.8H-1233.5z"/>
	<path id="XMLID_196_" class="st0" d="M-1065.6,1181.9c-7.8,0-14.1-2-19-6.1c-4.9-4-7.4-9.4-7.4-16.2c0-6.9,2.5-12.4,7.4-16.4
		s11.2-6.1,19-6.1c7.9,0,14.3,2,19.1,6.1c4.8,4,7.2,9.5,7.2,16.4c0,6.7-2.4,12.1-7.2,16.2
		C-1051.3,1179.8-1057.6,1181.9-1065.6,1181.9z M-1087,1197.1l21.4,4.1l21.7-4.1v148.6h-43.1V1197.1z"/>
	<path id="XMLID_199_" class="st0" d="M-1018.3,1198.7h43.2l9.3,56.1v91h-43.2v-97.4L-1018.3,1198.7z M-909.8,1194.8
		c14,0,25.8,2.8,35.7,8.4c9.8,5.6,17.3,13.6,22.5,23.9s7.8,22.7,7.8,37v81.7H-887v-75.2c0-13.3-3.2-23.3-9.6-30.1
		c-6.4-6.8-15.7-10.2-27.9-10.2c-8.3,0-15.5,1.9-21.8,5.6c-6.3,3.7-11.1,8.8-14.5,15.4c-3.4,6.5-5,14.4-5,23.5l-14.2-7.5
		c1.7-15.5,5.9-28.6,12.4-39.3s14.8-18.9,24.8-24.5C-932.8,1197.6-921.8,1194.8-909.8,1194.8z"/>
	<path id="XMLID_202_" class="st0" d="M-770.2,1310l-12.1-4.4l87.3-107h47l-126.1,147h-39.3v-199h43.2L-770.2,1310L-770.2,1310z
		 M-736.9,1273.6l31.8-24.5l61.2,96.6h-49.4L-736.9,1273.6z"/>
	<path id="XMLID_205_" class="st0" d="M-617.5,1176.4c-3.6,0-6.7-1.2-9.2-3.7s-3.7-5.5-3.7-8.9c0-3.4,1.2-6.4,3.7-8.9
		s5.6-3.7,9.2-3.7c3.6,0,6.7,1.3,9.2,3.7c2.5,2.5,3.7,5.5,3.7,8.9c0,3.4-1.3,6.4-3.7,8.9C-610.8,1175.2-613.9,1176.4-617.5,1176.4z
		 M-624.5,1201l7,1l7-1v144.7h-14V1201z"/>
	<path id="XMLID_208_" class="st0" d="M-575.6,1201h14l7.8,46.3v98.5h-14v-100.6L-575.6,1201z M-491.7,1197.9
		c13.4,0,24.8,2.7,34.1,8c9.3,5.3,16.4,13.1,21.3,23.4c4.9,10.3,7.4,22.7,7.4,37.3v79.1h-14v-76.2c0-19.5-4.4-34.2-13.2-44.1
		s-21.7-14.9-38.8-14.9c-11.9,0-22.3,2.7-31.1,8c-8.9,5.3-15.8,12.8-20.7,22.4s-7.4,20.6-7.4,33.2l-7.2-7c0.9-14,4.3-26.1,10.3-36.4
		c6-10.3,14.1-18.4,24.3-24.2C-516.4,1200.8-504.7,1197.9-491.7,1197.9z"/>
	<path id="XMLID_211_" class="st0" d="M-328.9,1151.9v193.8h-14.5v-192l11.9,9.8l-78.6,14v-12.4l69.8-13.2H-328.9z"/>
</g>
<g id="XMLID_173_">
	<path id="XMLID_174_" class="st0" d="M-1233.5,1151.9v174.4l-19.9-19.4h145.5v38.8h-169.6v-193.8H-1233.5z"/>
	<path id="XMLID_176_" class="st0" d="M-1065.6,1181.9c-7.8,0-14.1-2-19-6.1c-4.9-4-7.4-9.4-7.4-16.2c0-6.9,2.5-12.4,7.4-16.4
		s11.2-6.1,19-6.1c7.9,0,14.3,2,19.1,6.1c4.8,4,7.2,9.5,7.2,16.4c0,6.7-2.4,12.1-7.2,16.2
		C-1051.3,1179.8-1057.6,1181.9-1065.6,1181.9z M-1087,1197.1l21.4,4.1l21.7-4.1v148.6h-43.1V1197.1z"/>
	<path id="XMLID_179_" class="st0" d="M-1018.3,1198.7h43.2l9.3,56.1v91h-43.2v-97.4L-1018.3,1198.7z M-909.8,1194.8
		c14,0,25.8,2.8,35.7,8.4c9.8,5.6,17.3,13.6,22.5,23.9s7.8,22.7,7.8,37v81.7H-887v-75.2c0-13.3-3.2-23.3-9.6-30.1
		c-6.4-6.8-15.7-10.2-27.9-10.2c-8.3,0-15.5,1.9-21.8,5.6c-6.3,3.7-11.1,8.8-14.5,15.4c-3.4,6.5-5,14.4-5,23.5l-14.2-7.5
		c1.7-15.5,5.9-28.6,12.4-39.3s14.8-18.9,24.8-24.5C-932.8,1197.6-921.8,1194.8-909.8,1194.8z"/>
	<path id="XMLID_182_" class="st0" d="M-770.2,1310l-12.1-4.4l87.3-107h47l-126.1,147h-39.3v-199h43.2L-770.2,1310L-770.2,1310z
		 M-736.9,1273.6l31.8-24.5l61.2,96.6h-49.4L-736.9,1273.6z"/>
	<path id="XMLID_185_" class="st0" d="M-617.5,1176.4c-3.6,0-6.7-1.2-9.2-3.7s-3.7-5.5-3.7-8.9c0-3.4,1.2-6.4,3.7-8.9
		s5.6-3.7,9.2-3.7c3.6,0,6.7,1.3,9.2,3.7c2.5,2.5,3.7,5.5,3.7,8.9c0,3.4-1.3,6.4-3.7,8.9C-610.8,1175.2-613.9,1176.4-617.5,1176.4z
		 M-624.5,1201l7,1l7-1v144.7h-14V1201z"/>
	<path id="XMLID_188_" class="st0" d="M-575.6,1201h14l7.8,46.3v98.5h-14v-100.6L-575.6,1201z M-491.7,1197.9
		c13.4,0,24.8,2.7,34.1,8c9.3,5.3,16.4,13.1,21.3,23.4c4.9,10.3,7.4,22.7,7.4,37.3v79.1h-14v-76.2c0-19.5-4.4-34.2-13.2-44.1
		s-21.7-14.9-38.8-14.9c-11.9,0-22.3,2.7-31.1,8c-8.9,5.3-15.8,12.8-20.7,22.4s-7.4,20.6-7.4,33.2l-7.2-7c0.9-14,4.3-26.1,10.3-36.4
		c6-10.3,14.1-18.4,24.3-24.2C-516.4,1200.8-504.7,1197.9-491.7,1197.9z"/>
	<path id="XMLID_191_" class="st0" d="M-328.9,1151.9v193.8h-14.5v-192l11.9,9.8l-78.6,14v-12.4l69.8-13.2H-328.9z"/>
</g>
<g id="XMLID_1_">
	<path id="XMLID_154_" class="st0" d="M-1233.5,1151.9v174.4l-19.9-19.4h145.5v38.8h-169.6v-193.8H-1233.5z"/>
	<path id="XMLID_156_" class="st0" d="M-1065.6,1181.9c-7.8,0-14.1-2-19-6.1c-4.9-4-7.4-9.4-7.4-16.2c0-6.9,2.5-12.4,7.4-16.4
		s11.2-6.1,19-6.1c7.9,0,14.3,2,19.1,6.1c4.8,4,7.2,9.5,7.2,16.4c0,6.7-2.4,12.1-7.2,16.2
		C-1051.3,1179.8-1057.6,1181.9-1065.6,1181.9z M-1087,1197.1l21.4,4.1l21.7-4.1v148.6h-43.1V1197.1z"/>
	<path id="XMLID_159_" class="st0" d="M-1018.3,1198.7h43.2l9.3,56.1v91h-43.2v-97.4L-1018.3,1198.7z M-909.8,1194.8
		c14,0,25.8,2.8,35.7,8.4c9.8,5.6,17.3,13.6,22.5,23.9s7.8,22.7,7.8,37v81.7H-887v-75.2c0-13.3-3.2-23.3-9.6-30.1
		c-6.4-6.8-15.7-10.2-27.9-10.2c-8.3,0-15.5,1.9-21.8,5.6c-6.3,3.7-11.1,8.8-14.5,15.4c-3.4,6.5-5,14.4-5,23.5l-14.2-7.5
		c1.7-15.5,5.9-28.6,12.4-39.3s14.8-18.9,24.8-24.5C-932.8,1197.6-921.8,1194.8-909.8,1194.8z"/>
	<path id="XMLID_162_" class="st0" d="M-770.2,1310l-12.1-4.4l87.3-107h47l-126.1,147h-39.3v-199h43.2L-770.2,1310L-770.2,1310z
		 M-736.9,1273.6l31.8-24.5l61.2,96.6h-49.4L-736.9,1273.6z"/>
	<path id="XMLID_165_" class="st0" d="M-617.5,1176.4c-3.6,0-6.7-1.2-9.2-3.7s-3.7-5.5-3.7-8.9c0-3.4,1.2-6.4,3.7-8.9
		s5.6-3.7,9.2-3.7c3.6,0,6.7,1.3,9.2,3.7c2.5,2.5,3.7,5.5,3.7,8.9c0,3.4-1.3,6.4-3.7,8.9C-610.8,1175.2-613.9,1176.4-617.5,1176.4z
		 M-624.5,1201l7,1l7-1v144.7h-14V1201z"/>
	<path id="XMLID_168_" class="st0" d="M-575.6,1201h14l7.8,46.3v98.5h-14v-100.6L-575.6,1201z M-491.7,1197.9
		c13.4,0,24.8,2.7,34.1,8c9.3,5.3,16.4,13.1,21.3,23.4c4.9,10.3,7.4,22.7,7.4,37.3v79.1h-14v-76.2c0-19.5-4.4-34.2-13.2-44.1
		s-21.7-14.9-38.8-14.9c-11.9,0-22.3,2.7-31.1,8c-8.9,5.3-15.8,12.8-20.7,22.4s-7.4,20.6-7.4,33.2l-7.2-7c0.9-14,4.3-26.1,10.3-36.4
		c6-10.3,14.1-18.4,24.3-24.2C-516.4,1200.8-504.7,1197.9-491.7,1197.9z"/>
	<path id="XMLID_171_" class="st0" d="M-328.9,1151.9v193.8h-14.5v-192l11.9,9.8l-78.6,14v-12.4l69.8-13.2H-328.9z"/>
</g>
</svg>
