<?xml version="1.0" encoding="utf-8"?>
<!-- Generator: Adobe Illustrator 19.0.0, SVG Export Plug-In . SVG Version: 6.00 Build 0)  -->
<svg version="1.1" id="Layer_1" xmlns="http://www.w3.org/2000/svg" xmlns:xlink="http://www.w3.org/1999/xlink" x="0px" y="0px"
	 viewBox="0 0 932.4 211.4" style="enable-background:new 0 0 932.4 211.4;" xml:space="preserve">
<style type="text/css">
	.st0{fill:#FFFFFF;}
</style>
<g id="XMLID_94_">
	<path id="XMLID_95_" class="st0" d="M26.8,17.6V192L6.9,172.6h145.5v38.8H-17.1V17.6H26.8z"/>
	<path id="XMLID_97_" class="st0" d="M194.8,47.6c-7.8,0-14.1-2-19-6.1c-4.9-4-7.4-9.4-7.4-16.2c0-6.9,2.5-12.4,7.4-16.4
		c4.9-4,11.2-6.1,19-6.1c7.9,0,14.3,2,19.1,6.1c4.8,4,7.2,9.5,7.2,16.4c0,6.7-2.4,12.1-7.2,16.2C209.1,45.6,202.7,47.6,194.8,47.6z
		 M173.3,62.8l21.4,4.1l21.7-4.1v148.6h-43.2V62.8z"/>
	<path id="XMLID_100_" class="st0" d="M242.1,64.4h43.2l9.3,56.1v91h-43.2V114L242.1,64.4z M350.6,60.5c14,0,25.8,2.8,35.7,8.4
		c9.8,5.6,17.3,13.6,22.5,23.9c5.2,10.3,7.8,22.7,7.8,37v81.7h-43.2v-75.2c0-13.3-3.2-23.3-9.6-30.1c-6.4-6.8-15.7-10.2-27.9-10.2
		c-8.3,0-15.5,1.9-21.8,5.6c-6.3,3.7-11.1,8.8-14.5,15.4c-3.4,6.5-5,14.4-5,23.5l-14.2-7.5c1.7-15.5,5.9-28.6,12.4-39.3
		c6.5-10.7,14.8-18.9,24.8-24.5C327.5,63.3,338.6,60.5,350.6,60.5z"/>
	<path id="XMLID_103_" class="st0" d="M490.2,175.7l-12.1-4.4l87.3-107h47l-126.1,147H447v-199h43.2V175.7z M523.5,139.3l31.8-24.5
		l61.2,96.6h-49.4L523.5,139.3z"/>
	<path id="XMLID_107_" class="st0" d="M642.9,42.1c-3.6,0-6.7-1.2-9.2-3.7c-2.5-2.5-3.7-5.5-3.7-8.9c0-3.4,1.2-6.4,3.7-8.9
		c2.5-2.5,5.6-3.7,9.2-3.7c3.6,0,6.7,1.3,9.2,3.7c2.5,2.5,3.7,5.5,3.7,8.9c0,3.4-1.3,6.4-3.7,8.9C649.5,40.9,646.5,42.1,642.9,42.1z
		 M635.9,66.7l7,1l7-1v144.7h-14V66.7z"/>
	<path id="XMLID_113_" class="st0" d="M684.7,66.7h14l7.8,46.3v98.5h-14V110.9L684.7,66.7z M768.7,63.6c13.4,0,24.8,2.7,34.1,8
		c9.3,5.3,16.4,13.1,21.3,23.4c4.9,10.3,7.4,22.7,7.4,37.3v79.1h-14v-76.2c0-19.5-4.4-34.2-13.2-44.1c-8.8-9.9-21.7-14.9-38.8-14.9
		c-11.9,0-22.3,2.7-31.1,8c-8.9,5.3-15.8,12.8-20.7,22.4c-4.9,9.6-7.4,20.6-7.4,33.2l-7.2-7c0.9-14,4.3-26.1,10.3-36.4
		c6-10.3,14.1-18.4,24.3-24.2C744,66.5,755.6,63.6,768.7,63.6z"/>
	<path id="XMLID_116_" class="st0" d="M931.5,17.6v193.8H917v-192l11.9,9.8l-78.6,14V30.8l69.8-13.2H931.5z"/>
</g>
<g id="XMLID_74_">
	<path id="XMLID_75_" class="st0" d="M26.8,17.6V192L6.9,172.6h145.5v38.8H-17.1V17.6H26.8z"/>
	<path id="XMLID_77_" class="st0" d="M194.8,47.6c-7.8,0-14.1-2-19-6.1c-4.9-4-7.4-9.4-7.4-16.2c0-6.9,2.5-12.4,7.4-16.4
		c4.9-4,11.2-6.1,19-6.1c7.9,0,14.3,2,19.1,6.1c4.8,4,7.2,9.5,7.2,16.4c0,6.7-2.4,12.1-7.2,16.2C209.1,45.6,202.7,47.6,194.8,47.6z
		 M173.3,62.8l21.4,4.1l21.7-4.1v148.6h-43.2V62.8z"/>
	<path id="XMLID_80_" class="st0" d="M242.1,64.4h43.2l9.3,56.1v91h-43.2V114L242.1,64.4z M350.6,60.5c14,0,25.8,2.8,35.7,8.4
		c9.8,5.6,17.3,13.6,22.5,23.9c5.2,10.3,7.8,22.7,7.8,37v81.7h-43.2v-75.2c0-13.3-3.2-23.3-9.6-30.1c-6.4-6.8-15.7-10.2-27.9-10.2
		c-8.3,0-15.5,1.9-21.8,5.6c-6.3,3.7-11.1,8.8-14.5,15.4c-3.4,6.5-5,14.4-5,23.5l-14.2-7.5c1.7-15.5,5.9-28.6,12.4-39.3
		c6.5-10.7,14.8-18.9,24.8-24.5C327.5,63.3,338.6,60.5,350.6,60.5z"/>
	<path id="XMLID_83_" class="st0" d="M490.2,175.7l-12.1-4.4l87.3-107h47l-126.1,147H447v-199h43.2V175.7z M523.5,139.3l31.8-24.5
		l61.2,96.6h-49.4L523.5,139.3z"/>
	<path id="XMLID_86_" class="st0" d="M642.9,42.1c-3.6,0-6.7-1.2-9.2-3.7c-2.5-2.5-3.7-5.5-3.7-8.9c0-3.4,1.2-6.4,3.7-8.9
		c2.5-2.5,5.6-3.7,9.2-3.7c3.6,0,6.7,1.3,9.2,3.7c2.5,2.5,3.7,5.5,3.7,8.9c0,3.4-1.3,6.4-3.7,8.9C649.5,40.9,646.5,42.1,642.9,42.1z
		 M635.9,66.7l7,1l7-1v144.7h-14V66.7z"/>
	<path id="XMLID_89_" class="st0" d="M684.7,66.7h14l7.8,46.3v98.5h-14V110.9L684.7,66.7z M768.7,63.6c13.4,0,24.8,2.7,34.1,8
		c9.3,5.3,16.4,13.1,21.3,23.4c4.9,10.3,7.4,22.7,7.4,37.3v79.1h-14v-76.2c0-19.5-4.4-34.2-13.2-44.1c-8.8-9.9-21.7-14.9-38.8-14.9
		c-11.9,0-22.3,2.7-31.1,8c-8.9,5.3-15.8,12.8-20.7,22.4c-4.9,9.6-7.4,20.6-7.4,33.2l-7.2-7c0.9-14,4.3-26.1,10.3-36.4
		c6-10.3,14.1-18.4,24.3-24.2C744,66.5,755.6,63.6,768.7,63.6z"/>
	<path id="XMLID_92_" class="st0" d="M931.5,17.6v193.8H917v-192l11.9,9.8l-78.6,14V30.8l69.8-13.2H931.5z"/>
</g>
<g id="XMLID_1_">
	<path id="XMLID_55_" class="st0" d="M26.8,17.6V192L6.9,172.6h145.5v38.8H-17.1V17.6H26.8z"/>
	<path id="XMLID_57_" class="st0" d="M194.8,47.6c-7.8,0-14.1-2-19-6.1c-4.9-4-7.4-9.4-7.4-16.2c0-6.9,2.5-12.4,7.4-16.4
		c4.9-4,11.2-6.1,19-6.1c7.9,0,14.3,2,19.1,6.1c4.8,4,7.2,9.5,7.2,16.4c0,6.7-2.4,12.1-7.2,16.2C209.1,45.6,202.7,47.6,194.8,47.6z
		 M173.3,62.8l21.4,4.1l21.7-4.1v148.6h-43.2V62.8z"/>
	<path id="XMLID_60_" class="st0" d="M242.1,64.4h43.2l9.3,56.1v91h-43.2V114L242.1,64.4z M350.6,60.5c14,0,25.8,2.8,35.7,8.4
		c9.8,5.6,17.3,13.6,22.5,23.9c5.2,10.3,7.8,22.7,7.8,37v81.7h-43.2v-75.2c0-13.3-3.2-23.3-9.6-30.1c-6.4-6.8-15.7-10.2-27.9-10.2
		c-8.3,0-15.5,1.9-21.8,5.6c-6.3,3.7-11.1,8.8-14.5,15.4c-3.4,6.5-5,14.4-5,23.5l-14.2-7.5c1.7-15.5,5.9-28.6,12.4-39.3
		c6.5-10.7,14.8-18.9,24.8-24.5C327.5,63.3,338.6,60.5,350.6,60.5z"/>
	<path id="XMLID_63_" class="st0" d="M490.2,175.7l-12.1-4.4l87.3-107h47l-126.1,147H447v-199h43.2V175.7z M523.5,139.3l31.8-24.5
		l61.2,96.6h-49.4L523.5,139.3z"/>
	<path id="XMLID_66_" class="st0" d="M642.9,42.1c-3.6,0-6.7-1.2-9.2-3.7c-2.5-2.5-3.7-5.5-3.7-8.9c0-3.4,1.2-6.4,3.7-8.9
		c2.5-2.5,5.6-3.7,9.2-3.7c3.6,0,6.7,1.3,9.2,3.7c2.5,2.5,3.7,5.5,3.7,8.9c0,3.4-1.3,6.4-3.7,8.9C649.5,40.9,646.5,42.1,642.9,42.1z
		 M635.9,66.7l7,1l7-1v144.7h-14V66.7z"/>
	<path id="XMLID_69_" class="st0" d="M684.7,66.7h14l7.8,46.3v98.5h-14V110.9L684.7,66.7z M768.7,63.6c13.4,0,24.8,2.7,34.1,8
		c9.3,5.3,16.4,13.1,21.3,23.4c4.9,10.3,7.4,22.7,7.4,37.3v79.1h-14v-76.2c0-19.5-4.4-34.2-13.2-44.1c-8.8-9.9-21.7-14.9-38.8-14.9
		c-11.9,0-22.3,2.7-31.1,8c-8.9,5.3-15.8,12.8-20.7,22.4c-4.9,9.6-7.4,20.6-7.4,33.2l-7.2-7c0.9-14,4.3-26.1,10.3-36.4
		c6-10.3,14.1-18.4,24.3-24.2C744,66.5,755.6,63.6,768.7,63.6z"/>
	<path id="XMLID_72_" class="st0" d="M931.5,17.6v193.8H917v-192l11.9,9.8l-78.6,14V30.8l69.8-13.2H931.5z"/>
</g>
</svg>
